mtllib materials.mtl
v 0.05312983 -0.1342385 -0.003480211
v 0.0629674 -0.1328248 -0.005516604
v 0.05502525 0.08428228 0.01163679
v 0.07127918 -0.1303002 -0.003091305
v 0.06014034 0.08443117 0.01368338
v 0.07386763 -0.1347899 0.001125485
v 0.06474461 0.08267307 0.02267507
v 0.0691625 -0.1336513 0.006732285
v 0.06440003 0.08685815 0.02313454
v 0.06511806 -0.1345391 0.01036942
v 0.06240324 0.08848619 0.02800669
v 0.05974932 -0.135041 0.01150936
v 0.05811644 0.08982134 0.03120281
v 0.05449481 -0.1350223 0.009846672
v 0.05268826 0.09050643 0.03186646
v 0.05184871 -0.1349422 0.005597785
v 0.04757316 0.09035742 0.02981986
v 0.04331348 0.08793032 0.0203687
v 0.04531026 0.08630252 0.01549657
v 0.04959707 0.08496714 0.01230046
v 0.04414176 0.08941448 0.0256114
v -0.03207828 0.0632571 -0.01182219
v 0.1402973 0.04272676 0.01873367
v -0.03628552 0.06131768 -0.006203696
v -0.01137097 0.03798127 -0.008754045
v 0.1372629 0.01445949 0.01607177
v 0.140027 0.0431447 0.0254083
v 0.135679 0.01493764 0.02354106
v 0.1381966 0.07299531 0.02655962
v -0.01199421 0.0868324 0.0004810691
v -0.01005974 0.08554935 -0.003439113
v 0.01621384 0.08332455 0.001877174
v -0.03855594 0.06343567 -0.002972305
v 0.1385546 0.04477918 0.01903191
v -0.03478869 0.06268108 -0.009158432
v 0.1380593 0.04455376 0.02625203
v 0.1404833 0.07616711 0.02139659
v 0.03347227 0.07981539 0.005148962
vn -0.2117538 0.06927665 -0.9748647
vn 0.254169 0.08842213 -0.9631094
vn 0.8860608 0.08237842 -0.456191
vn 0.7624607 -0.03160385 0.6462623
vn 0.6738912 -0.05009076 0.7371306
vn 0.2144481 -0.08367085 0.973145
vn -0.3006285 -0.09506413 0.9489918
vn -0.8472171 -0.07265579 0.5262552
vn -0.9894786 -0.02849273 -0.141846
vn 0.08579442 0.9550027 -0.2839178
vn 0.05353953 -0.9821617 -0.1802553
vn -0.7630997 -0.08338255 0.6408793
vn -0.9843391 -0.04892121 0.1693617
vn -0.367515 -0.09328929 0.9253269
vn 0.110217 -0.08592022 0.9901869
vn 0.5853217 -0.05683696 0.8088067
vn 0.9242813 -0.008423913 0.3816191
vn 0.2550701 -0.08474321 0.9632019
vn 0.8935036 0.08085575 -0.4417167
vn 0.367907 0.08660678 -0.9258206
vn -0.1124158 0.06954703 -0.9912245
vn -0.5872183 0.04870181 -0.8079622
vn -0.9253274 -0.0001827297 -0.379169
vn 0.3798196 -0.5074515 -0.7734534
vn 0.07639943 -0.9948681 -0.06633684
vn 0.8929482 0.1211209 -0.433559
vn -0.1971078 -0.9798066 0.03357945
vn 0.05353842 -0.9821672 -0.1802256
vn 0.07091109 -0.9921703 -0.1028099
vn 0.1274193 -0.9892877 -0.0712341
vn 0.04768351 0.9326417 0.3576391
vn -0.5714982 -0.5428967 -0.615348
vn 0.9927012 -0.1110036 0.04714327
vn 0.1774832 0.02598573 -0.9837807
vn -0.198806 -0.3137194 0.9284699
vn -0.1609689 -0.9865328 0.02901847
vn 0.1756172 0.07359409 -0.9817039
vn -0.2190079 -0.03079858 0.975237
vn 0.1125651 0.9919759 -0.05755756
vn 0.9630544 -0.1626609 0.2146337
vn 0.131647 0.9594951 -0.2490752
vn -0.1111631 -0.9923689 0.05335449
vn -0.5646974 0.7045302 -0.4298303
vn 0.9956077 -0.06616684 0.06623609
vn 0.1667783 0.06569938 -0.9838032
vn -0.1594605 0.03541333 0.9865689
vn 0.2057437 0.104696 -0.9729894
vn 0.1519585 0.06496397 -0.9862497
vn -0.1719466 -0.009823005 0.9850573
vn -0.1000246 -0.9942628 -0.03790478
vn 0.9162816 -0.00875458 0.4004391
vn -0.5289862 0.6941299 -0.4882187
vn -0.04771037 0.8603752 0.5074231
vn 0.205744 0.1046983 -0.9729891
vn 0.2225017 0.2997354 -0.9277132
vt -0.1242596 0.05662722
vt -0.1239647 0.05759795
vt -0.1441814 0.06573509
vt -0.1189948 0.06739701
vt -0.1188287 0.06828348
vt -0.1383419 0.07746954
vt -0.03087024 0.133268
vt -0.03025793 0.1330007
vt -0.03587612 0.1541387
vt 0.1226889 0.05967686
vt 0.1231469 0.05909462
vt 0.143143 0.06854533
vt 0.1239213 0.05763635
vt 0.1240979 0.05711428
vt 0.1444717 0.06636052
vt 0.1241549 0.05720787
vt 0.1243396 0.05668858
vt 0.1450663 0.06562935
vt 0.1180997 0.06885101
vt 0.1183543 0.06836219
vt 0.1382574 0.07919638
vt 0.05154923 0.1265299
vt 0.05199528 0.1263027
vt 0.06095282 0.1471212
vt -0.1078343 0.08356486
vt -0.1072521 0.08427656
vt -0.1250538 0.09781691
vt -0.05659258 -0.02390817
vt -0.05613167 -0.02360601
vt -0.05588358 -0.02311387
vt -0.0559148 -0.02256362
vt -0.05621696 -0.0221027
vt -0.05725935 -0.02188583
vt -0.05772027 -0.022188
vt -0.05796836 -0.02268013
vt -0.05793714 -0.02323038
vt -0.05763497 -0.0236913
vt -0.05714284 -0.02393939
vt -0.005400407 0.01250203
vt -0.005041196 0.01292002
vt -0.004939102 0.01346161
vt 0.08135454 0.1097261
vt 0.09554919 0.1272324
vt 0.09520654 0.127664
vt -0.07423489 0.1404252
vt -0.07478248 0.1403628
vt -0.06460969 0.1202513
vt 0.1164646 0.07153561
vt 0.1363198 0.08240767
vt 0.1360703 0.08289913
vt 0.1236983 0.05809433
vt 0.1446401 0.06674315
vt 0.1443484 0.06721079
vt 0.1245739 0.05608206
vt 0.1454316 0.06463552
vt 0.1450709 0.06505215
vt 0.1178655 0.0690436
vt 0.1372534 0.08011356
vt 0.1368154 0.08044811
vt 0.1238335 0.05771286
vt 0.1446363 0.06572918
vt 0.1442363 0.06559338
vt -0.02561699 0.1343757
vt -0.02977907 0.1554309
vt -0.0307975 0.1553117
vt -0.1160627 0.07232772
vt -0.1349682 0.08320661
vt -0.13522 0.08271639
vt -0.1236124 0.05802673
vt -0.1434587 0.06729804
vt -0.143752 0.06683142
vt -0.1246333 0.05569195
vt -0.1447746 0.06449281
vt -0.1451348 0.06407564
vt -0.1179192 0.06864198
vt -0.1371314 0.07966409
vt -0.1375677 0.07932735
vt -0.0677124 0.08925088
vt -0.06837216 0.08935632
vt -0.06880767 0.08856654
vt 0.008506849 0.009966888
vt 0.009313449 0.009525457
vt 0.009804262 0.009624027
vt -0.0328469 0.1544056
vt -0.03183019 0.1545387
vt -0.03193121 0.1549489
vt 0.009517233 -0.02860781
vt 0.009163873 -0.02795677
vt 0.008150229 -0.02875707
vt -0.005396818 0.01250022
vt -0.004935522 0.0134598
vt -0.005117905 0.01397988
vt 0.005020764 0.01062239
vt 0.005259561 0.01210906
vt 0.003890316 0.011982
vt 0.01151982 0.01643518
vt 0.01036748 0.01777628
vt 0.01022094 0.01677241
vt 0.04528678 0.008099407
vt 0.03412548 0.02174163
vt 0.04495483 0.007451251
vt -0.128329 0.01157818
vt -0.1282361 0.01085591
vt -0.1251229 0.01227934
vt 0.096298 0.1173925
vt 0.09866464 0.1192835
vt 0.0980856 0.1196191
vt -0.136719 0.06972693
vt -0.1299424 0.08357942
vt -0.1399318 0.06905712
vt 0.1426401 0.04548855
vt 0.145723 0.04400057
vt 0.1382706 0.0603902
vt 0.01429825 -0.02055997
vt 0.0136554 -0.0201452
vt 0.006070612 -0.03337725
vt -0.1385431 0.06668455
vt -0.1297048 0.07911439
vt -0.1320867 0.08068915
vt 0.1290779 0.08517857
vt 0.1268123 0.08343296
vt 0.1359698 0.07126264
vt -0.02104208 -0.01437582
vt -0.02166424 -0.01462259
vt -0.01291886 -0.03036028
vt 0.1097067 0.1045224
vt 0.1103105 0.1040526
vt 0.1122711 0.106135
vt -0.05169586 -0.0217787
vt -0.04603967 -0.03600178
vt -0.04568497 -0.03571584
vt -0.04675021 -0.03324594
vt 0.01254819 -0.0303156
vt 0.02044745 -0.01420332
vt 0.01208769 -0.02975147
vt -0.09671129 0.06466617
vt -0.09507693 0.06150746
vt -0.09452727 0.06198514
vt 0.1046155 0.1143556
vt 0.1051808 0.1139032
vt 0.106682 0.1167378
vt -0.1416877 0.06592263
vt -0.1322076 0.08081417
vt -0.1425997 0.06921509
vt 0.1275853 0.08577971
vt 0.1379433 0.07105736
vt 0.1386867 0.0745353
vt -0.1432799 0.06784981
vt -0.1408239 0.07158943
vt -0.1419082 0.07016359
vt -0.1324862 0.08034203
vt -0.1351994 0.08194943
vt -0.1403599 0.07242811
vt 0.1404442 0.07279886
vt 0.1320261 0.08558254
vt 0.1295278 0.08422283
vt -0.001345624 -0.02404664
vt 0.007988297 -0.008654656
vt 0.007335355 -0.008341718
vt 0.1325915 0.07899075
vt 0.1349385 0.08059751
vt 0.1348761 0.08124216
vt -0.1003425 0.0571663
vt -0.102137 0.06007347
vt -0.1025306 0.05984401
vt 0.05576114 0.03870653
vt 0.04917226 0.04730149
vt 0.04875387 0.04680711
vt -0.140824 0.07158926
vt -0.1355397 0.08090579
vt -0.1419083 0.07016341
vt -0.1381143 0.06168359
vt -0.1449911 0.05288956
vt -0.1469901 0.04888699
o group1957107362
g mesh1957107362
usemtl mat22
f 3/3/1 2/2/1 1/1/1
f 5/6/2 4/5/2 2/4/2
f 7/9/3 6/8/3 4/7/3
f 9/12/4 8/11/4 6/10/4
f 11/15/5 10/14/5 8/13/5
f 13/18/6 12/17/6 10/16/6
f 15/21/7 14/20/7 12/19/7
f 17/24/8 16/23/8 14/22/8
f 18/27/9 1/26/9 16/25/9
f 21/38/10 17/37/10 15/36/10 13/35/10 11/34/10 9/33/10 5/32/10 3/31/10 20/30/10 19/29/10 18/28/10
f 10/41/11 12/40/11 14/39/11
f 17/44/12 21/43/12 16/42/12
f 16/47/13 21/46/13 18/45/13
f 15/50/14 17/49/14 14/48/14
f 13/53/15 15/52/15 12/51/15
f 11/56/16 13/55/16 10/54/16
f 9/59/17 11/58/17 8/57/17
f 7/62/18 9/61/18 6/60/18
f 5/65/19 7/64/19 4/63/19
f 3/68/20 5/67/20 2/66/20
f 20/71/21 3/70/21 1/69/21
f 19/74/22 20/73/22 1/72/22
f 18/77/23 19/76/23 1/75/23
f 2/80/24 4/79/24 6/78/24
f 14/83/25 16/82/25 1/81/25
f 9/86/26 7/85/26 5/84/26
f 2/89/27 6/88/27 8/87/27
f 8/92/28 10/91/28 14/90/28
f 2/95/29 8/94/29 14/93/29
f 1/98/30 2/97/30 14/96/30
usemtl mat20
f 24/101/31 23/100/31 22/99/31
f 25/104/32 24/103/32 22/102/32
f 23/107/33 27/106/33 26/105/33
f 22/110/34 23/109/34 25/108/34
f 27/113/35 24/112/35 25/111/35
f 25/116/36 26/115/36 28/114/36
f 23/119/37 26/118/37 25/117/37
f 25/122/38 28/121/38 27/120/38
f 24/125/39 27/124/39 23/123/39
f 27/128/40 28/127/40 26/126/40
f 32/132/41 31/131/41 30/130/41 29/129/41
f 35/135/42 34/134/42 33/133/42
f 35/138/43 33/137/43 30/136/43
f 37/141/44 36/140/44 34/139/44
f 31/144/45 34/143/45 35/142/45
f 30/147/46 33/146/46 36/145/46
f 32/150/47 38/149/47 31/148/47
f 38/153/48 37/152/48 34/151/48
f 36/156/49 29/155/49 30/154/49
f 34/159/50 36/158/50 33/157/50
f 37/162/51 29/161/51 36/160/51
f 30/165/52 31/164/52 35/163/52
f 29/168/53 37/167/53 38/166/53
f 32/171/54 29/170/54 38/169/54
f 31/174/55 38/173/55 34/172/55
